<?xml version="1.0" encoding="UTF-8"?>
<!DOCTYPE svg PUBLIC "-//W3C//DTD SVG 1.1//EN" "http://www.w3.org/Graphics/SVG/1.1/DTD/svg11.dtd">
<!-- Creator: CorelDRAW -->
<svg xmlns="http://www.w3.org/2000/svg" xml:space="preserve" width="210mm" height="297mm" version="1.1" style="shape-rendering:geometricPrecision; text-rendering:geometricPrecision; image-rendering:optimizeQuality; fill-rule:evenodd; clip-rule:evenodd"
viewBox="0 0 21000 29700"
 xmlns:xlink="http://www.w3.org/1999/xlink">
 <defs>
  <style type="text/css">
   <![CDATA[
    .fil2 {fill:#00AA11;fill-rule:nonzero}
    .fil0 {fill:#ED2836;fill-rule:nonzero}
    .fil3 {fill:white;fill-rule:nonzero}
    .fil1 {fill:black;fill-rule:nonzero}
   ]]>
  </style>
 </defs>
 <g id="Layer_x0020_1">
  <metadata id="CorelCorpID_0Corel-Layer"/>
  <g id="GoFood.cdr">
   <path class="fil0" d="M10591 14990c-1825,12 -3355,-1493 -3323,-3374 30,-1796 1484,-3280 3351,-3266 1860,14 3290,1538 3292,3320 2,1843 -1521,3336 -3320,3320zm2193 -3644l0 0c-5,-184 -50,-411 -123,-633 -84,-252 -201,-485 -400,-669 -210,-192 -500,-233 -749,-96 -213,117 -340,308 -442,519 -135,281 -199,581 -224,890 -14,178 7,352 82,517 84,187 218,329 384,448 131,93 198,223 200,388 1,122 7,244 15,366 6,111 9,222 28,331 23,124 156,218 275,208 139,-11 251,-125 257,-261 10,-203 23,-407 29,-610 5,-196 88,-341 248,-457 299,-218 443,-517 420,-941zm-3628 -741l0 0c0,173 1,345 -1,518 -1,94 -72,171 -156,174 -86,4 -163,-65 -164,-162 0,-141 5,-281 18,-421 13,-144 39,-287 56,-430 16,-137 -87,-262 -223,-277 -121,-13 -237,88 -253,223 -19,166 -47,331 -54,498 -12,261 -29,525 -11,785 25,353 201,633 496,833 142,96 224,230 235,401 13,203 19,407 28,611 5,102 81,207 174,239 106,37 208,10 284,-72 58,-63 75,-139 78,-220 5,-149 7,-299 14,-448 3,-63 10,-126 25,-187 33,-140 125,-238 243,-314 187,-121 314,-289 402,-492 80,-186 88,-384 86,-580 -2,-243 -19,-488 -37,-731 -9,-121 -31,-242 -53,-362 -19,-100 -120,-181 -217,-187 -94,-5 -182,61 -226,154 -44,93 -12,182 -4,273 19,232 39,464 50,697 2,43 -28,96 -58,131 -40,47 -99,49 -156,24 -69,-30 -96,-88 -96,-158 -1,-313 0,-626 -1,-940 -1,-38 -5,-77 -13,-114 -28,-129 -133,-214 -250,-203 -124,11 -216,118 -216,254 -1,161 0,322 0,483z"/>
   <path class="fil1" d="M5601 18062c-482,403 -1159,181 -1410,-153 -287,-382 -261,-946 61,-1286 323,-340 981,-402 1346,-77 0,-74 0,-139 0,-210 169,0 329,0 496,0 0,29 0,55 0,82 0,610 0,1220 -1,1830 0,378 -182,647 -516,809 -414,200 -1039,95 -1373,-220 -18,-17 -40,-30 -32,-39 98,-107 194,-215 294,-320 7,-7 44,5 59,17 228,180 484,229 760,152 202,-56 315,-223 316,-432 1,-48 0,-97 0,-153zm-26 -766l0 0c11,-113 1,-228 -84,-325 -73,-83 -165,-130 -268,-163 -204,-64 -470,11 -602,166 -107,127 -124,276 -102,429 30,211 153,349 364,397 65,15 135,24 201,19 172,-12 326,-66 432,-216 65,-92 64,-195 59,-307z"/>
   <path class="fil1" d="M16494 15686c179,0 344,0 514,0 0,848 0,1692 0,2540 -154,0 -307,0 -468,0 0,-52 0,-105 0,-178 -226,213 -486,259 -765,229 -282,-30 -518,-150 -691,-380 -273,-365 -238,-925 83,-1270 300,-322 905,-419 1327,-105 0,-281 0,-556 0,-836zm6 1623l0 0c-1,0 -3,0 -4,0 0,-34 -1,-68 0,-102 6,-132 -50,-237 -159,-302 -83,-50 -178,-93 -272,-111 -221,-40 -454,42 -572,236 -147,240 -73,583 159,716 160,91 331,102 505,53 159,-45 284,-134 328,-301 16,-60 11,-126 15,-189z"/>
   <path class="fil1" d="M7467 16332c373,7 688,147 895,483 100,162 136,342 130,532 -6,207 -70,391 -195,553 -157,202 -367,319 -616,364 -322,57 -626,10 -894,-188 -433,-319 -510,-960 -169,-1372 217,-263 504,-369 849,-372zm506 978l0 0c17,-298 -218,-525 -507,-524 -329,1 -542,207 -542,528 0,304 221,524 531,520 339,-4 533,-257 518,-524z"/>
   <path class="fil1" d="M12408 17304c5,531 -418,911 -883,969 -337,41 -639,-28 -896,-256 -369,-328 -426,-902 -121,-1289 228,-289 534,-411 900,-396 241,11 457,82 645,234 159,129 268,293 317,492 20,81 26,164 38,246zm-526 5l0 0c12,-304 -214,-512 -487,-524 -366,-14 -560,234 -563,514 -3,312 213,533 525,532 329,-2 534,-229 525,-522z"/>
   <path class="fil1" d="M12610 17243c-9,-420 353,-811 808,-891 409,-71 775,19 1059,342 119,136 183,298 210,478 35,236 -12,452 -138,649 -168,263 -416,406 -724,450 -299,43 -577,-9 -823,-190 -262,-193 -392,-454 -392,-838zm519 63l0 0c-1,312 210,523 524,525 305,2 528,-218 528,-523 1,-297 -215,-515 -500,-524 -329,-9 -561,215 -552,522z"/>
   <path class="fil1" d="M9606 16821c0,476 0,938 0,1404 -173,0 -342,0 -517,0 0,-466 0,-930 0,-1399 -131,0 -255,-2 -379,1 -48,1 -63,-14 -63,-62 3,-126 1,-253 1,-386 149,0 291,0 444,0 0,-89 -10,-174 2,-255 34,-248 188,-408 440,-436 199,-22 402,-14 603,-16 14,0 40,23 40,37 3,133 2,266 2,409 -143,0 -278,-1 -413,0 -120,1 -160,43 -160,166 0,29 0,58 0,92 232,0 458,0 689,0 0,149 0,293 0,445 -226,0 -453,0 -689,0z"/>
   <path class="fil2" d="M11366 20481c-21,377 -189,635 -511,792 -94,45 -181,9 -224,-87 -32,-74 5,-158 93,-197 229,-102 329,-311 325,-507 -6,-239 -149,-421 -374,-500 -217,-75 -443,-2 -603,195 -123,152 -134,414 -26,589 60,97 139,171 243,220 98,46 132,131 93,215 -41,86 -137,114 -233,65 -258,-130 -427,-332 -479,-620 -81,-454 202,-861 611,-974 483,-133 947,172 1054,613 18,70 23,143 31,196z"/>
   <path class="fil1" d="M12599 20020c2,-36 4,-65 7,-98 83,0 164,0 249,0 2,18 5,36 5,53 1,295 2,590 0,884 -2,182 -72,332 -234,423 -204,115 -521,79 -703,-74 -17,-14 -34,-29 -54,-47 54,-54 107,-106 166,-163 90,73 192,109 311,106 184,-6 274,-106 250,-301 -153,120 -323,124 -495,67 -102,-35 -183,-103 -241,-199 -121,-202 -90,-459 78,-615 180,-168 452,-185 661,-36zm-11 392l0 0c0,-171 -92,-264 -261,-263 -159,2 -266,106 -271,250 -8,189 115,274 277,272 167,-3 255,-91 255,-259z"/>
   <path class="fil1" d="M16827 19919c-153,145 -293,277 -436,411 145,193 286,381 437,581 -103,0 -188,3 -273,-1 -20,-1 -44,-23 -57,-41 -79,-105 -155,-212 -232,-318 -13,-18 -26,-35 -50,-65 -55,63 -126,113 -150,180 -25,70 -5,156 -5,246 -46,0 -86,0 -126,0 -38,0 -76,0 -121,0 -1,-30 -4,-54 -4,-78 0,-372 2,-744 -2,-1115 -1,-72 21,-92 89,-85 51,5 103,1 163,1 0,226 0,444 0,680 78,-70 143,-128 207,-187 64,-59 128,-121 193,-180 14,-13 34,-27 51,-28 99,-2 198,-1 316,-1z"/>
   <path class="fil1" d="M14903 20500c16,105 116,185 232,194 98,8 189,-6 269,-70 13,-10 40,-18 51,-11 54,32 104,71 160,110 -173,173 -370,220 -597,164 -184,-45 -318,-149 -361,-338 -94,-411 222,-683 589,-621 212,36 345,160 395,368 15,62 10,129 15,204 -133,0 -257,0 -381,0 -122,0 -244,0 -372,0zm492 -190l0 0c-17,-123 -115,-182 -280,-175 -119,6 -199,73 -205,175 161,0 321,0 485,0z"/>
   <path class="fil1" d="M13536 19905c293,12 511,194 533,478 14,194 -71,349 -241,454 -195,120 -505,88 -670,-72 -248,-240 -172,-662 145,-795 74,-31 155,-44 233,-65zm266 511l0 0c0,-161 -103,-268 -258,-267 -175,2 -266,114 -272,268 -6,147 121,265 269,264 158,-1 262,-107 261,-265z"/>
   <path class="fil1" d="M14222 19920c90,0 169,0 259,0 0,22 0,43 0,65 0,358 0,717 0,1075 0,181 -106,286 -287,287 -69,0 -139,0 -216,0 0,-43 0,-78 0,-114 0,-36 0,-72 0,-120 46,0 89,1 131,-1 95,-4 113,-24 113,-118 0,-331 0,-663 0,-994 0,-24 0,-49 0,-80z"/>
   <path class="fil2" d="M10194 20485c-20,-145 164,-320 320,-310 173,12 316,146 315,319 -1,172 -150,324 -322,319 -172,-4 -323,-141 -313,-328z"/>
   <path class="fil1" d="M4212 20040l267 0c145,0 231,82 231,213 0,134 -85,212 -231,212l-186 0 0 267 -81 0 0 -692zm262 348l0 0c106,0 154,-43 154,-135 0,-92 -50,-136 -154,-136l-181 0 0 271 181 0z"/>
   <path class="fil1" d="M4997 20193c148,0 247,112 247,277 0,165 -99,277 -247,277 -148,0 -246,-112 -246,-277 0,-165 98,-277 246,-277zm0 72l0 0c-104,0 -169,79 -169,205 0,125 65,205 169,205 104,0 170,-80 170,-205 0,-126 -66,-205 -170,-205z"/>
   <polygon class="fil1" points="5293,20208 5370,20208 5465,20615 5467,20615 5607,20208 5677,20208 5817,20615 5819,20615 5914,20208 5990,20208 5865,20732 5792,20732 5643,20304 5642,20304 5492,20732 5419,20732 "/>
   <path class="fil1" d="M6283 20193c141,0 235,106 235,260l0 40 -399 0c2,101 66,184 162,184 74,0 116,-27 160,-105l65 38c-45,90 -121,137 -223,137 -145,0 -242,-112 -242,-277 0,-165 100,-277 242,-277zm156 237l0 0c-1,-48 -16,-88 -45,-119 -29,-32 -65,-48 -111,-48 -89,0 -160,79 -162,167l318 0z"/>
   <path class="fil1" d="M6627 20208l74 0 0 43 1 0c20,-32 59,-52 109,-52 16,0 34,3 53,8l-17 80c-19,-6 -37,-9 -52,-9 -62,0 -91,42 -91,140l0 314 -77 0 0 -524z"/>
   <path class="fil1" d="M7141 20193c141,0 235,106 235,260l0 40 -399 0c2,101 67,184 162,184 75,0 116,-27 161,-105l64 38c-45,90 -121,137 -223,137 -145,0 -242,-112 -242,-277 0,-165 100,-277 242,-277zm157 237l0 0c-1,-48 -17,-88 -46,-119 -28,-32 -65,-48 -111,-48 -88,0 -160,79 -162,167l319 0z"/>
   <path class="fil1" d="M7701 20193c63,0 120,27 154,70l2 0 0 -253 77 0 0 722 -74 0 0 -53 -2 0c-34,43 -93,68 -157,68 -136,0 -235,-114 -235,-277 0,-163 99,-277 235,-277zm156 226l0 0c0,-86 -69,-154 -156,-154 -94,0 -158,81 -158,205 0,124 64,205 163,205 83,0 151,-70 151,-155l0 -101z"/>
   <path class="fil1" d="M8406 20679l0 53 -74 0 0 -722 77 0 0 253 2 0c35,-43 91,-70 154,-70 137,0 236,114 236,277 0,163 -99,277 -236,277 -64,0 -122,-25 -157,-68l-2 0zm159 -414l0 0c-87,0 -156,68 -156,154l0 101c0,85 68,155 151,155 99,0 164,-81 164,-205 0,-124 -65,-205 -159,-205z"/>
   <polygon class="fil1" points="9028,20687 8826,20208 8908,20208 9068,20598 9070,20598 9230,20208 9312,20208 8997,20954 8917,20954 "/>
   <path class="fil3" d="M12784 11346c-5,-184 -50,-411 -123,-633 -84,-252 -201,-485 -400,-669 -210,-192 -500,-233 -749,-96 -213,117 -340,308 -442,519 -135,281 -199,581 -224,890 -14,178 7,352 82,517 84,187 218,329 384,448 131,93 198,223 200,388 1,122 7,244 15,366 6,111 9,222 28,331 23,124 156,218 275,208 139,-11 251,-125 257,-261 10,-203 23,-407 29,-610 5,-196 88,-341 248,-457 299,-218 443,-517 420,-941z"/>
   <path class="fil3" d="M9156 10605c0,173 1,345 -1,518 -1,94 -72,171 -156,174 -86,4 -163,-65 -164,-162 0,-141 5,-281 18,-421 13,-144 39,-287 56,-430 16,-137 -87,-262 -223,-277 -121,-13 -237,88 -253,223 -19,166 -47,331 -54,498 -12,261 -29,525 -11,785 25,353 201,633 496,833 142,96 224,230 235,401 13,203 19,407 28,611 5,102 81,207 174,239 106,37 208,10 284,-72 58,-63 75,-139 78,-220 5,-149 7,-299 14,-448 3,-63 10,-126 25,-187 33,-140 125,-238 243,-314 187,-121 314,-289 402,-492 80,-186 88,-384 86,-580 -2,-243 -19,-488 -37,-731 -9,-121 -31,-242 -53,-362 -19,-100 -120,-181 -217,-187 -94,-5 -182,61 -226,154 -44,93 -12,182 -4,273 19,232 39,464 50,697 2,43 -28,96 -58,131 -40,47 -99,49 -156,24 -69,-30 -96,-88 -96,-158 -1,-313 0,-626 -1,-940 -1,-38 -5,-77 -13,-114 -28,-129 -133,-214 -250,-203 -124,11 -216,118 -216,254 -1,161 0,322 0,483z"/>
  </g>
 </g>
</svg>
