<?xml version="1.0" encoding="UTF-8"?>
<!DOCTYPE svg PUBLIC "-//W3C//DTD SVG 1.1//EN" "http://www.w3.org/Graphics/SVG/1.1/DTD/svg11.dtd">
<!-- Creator: CorelDRAW -->
<svg xmlns="http://www.w3.org/2000/svg" xml:space="preserve" width="210mm" height="297mm" version="1.1" style="shape-rendering:geometricPrecision; text-rendering:geometricPrecision; image-rendering:optimizeQuality; fill-rule:evenodd; clip-rule:evenodd"
viewBox="0 0 21000 29700"
 xmlns:xlink="http://www.w3.org/1999/xlink"
 enable-background="new 0 0 334 84"
 xmlns:dc="http://purl.org/dc/elements/1.1/"
 xmlns:cc="http://creativecommons.org/ns#"
 xmlns:rdf="http://www.w3.org/1999/02/22-rdf-syntax-ns#"
 xmlns:svg="http://www.w3.org/2000/svg"
 xmlns:sodipodi="http://sodipodi.sourceforge.net/DTD/sodipodi-0.dtd"
 xmlns:inkscape="http://www.inkscape.org/namespaces/inkscape"
 inkscape:version="0.92.3 (2405546, 2018-03-11)"
 sodipodi:docname="aeromexico.svg">
 <defs>
  <style type="text/css">
   <![CDATA[
    .fil0 {fill:#00B45E}
    .fil1 {fill:#029835}
    .fil2 {fill:white}
    .fil3 {fill:white;fill-rule:nonzero}
   ]]>
  </style>
 </defs>
 <g id="Layer_x0020_1">
  <metadata id="CorelCorpID_0Corel-Layer"/>
  <g id="Grab_x0020_Food.cdr">
   <sodipodi:namedview pagecolor="#ffffff" bordercolor="#666666" borderopacity="1" objecttolerance="10" gridtolerance="10" guidetolerance="10" inkscape:pageopacity="0" inkscape:pageshadow="2" inkscape:window-width="1280" inkscape:window-height="1004" id="namedview198" showgrid="false" fit-margin-top="0" fit-margin-left="0" fit-margin-right="0" fit-margin-bottom="0" inkscape:zoom="8.7486948" inkscape:cx="247.11667" inkscape:cy="40.949792" inkscape:window-x="-8" inkscape:window-y="-8" inkscape:window-maximized="1" inkscape:current-layer="g3"/>
   <sodipodi:namedview id="base" pagecolor="#00ffff" bordercolor="#666666" borderopacity="1.0" inkscape:pageopacity="0" inkscape:pageshadow="2" inkscape:zoom="1.4" inkscape:cx="451.73565" inkscape:cy="-10.201303" inkscape:document-units="px" inkscape:current-layer="layer1" showgrid="false" fit-margin-left="0.3" fit-margin-top="0.3" fit-margin-right="0.3" fit-margin-bottom="0.3" units="px" inkscape:window-width="1920" inkscape:window-height="1001" inkscape:window-x="-9" inkscape:window-y="-9" inkscape:window-maximized="1"/>
   <g>
    <path class="fil0" d="M11801 16492l0 -534 109 0 0 459c-30,15 -72,43 -109,75zm-191 160c34,-40 69,-81 110,-115l0 -579 -110 0 0 694zm-1266 424c0,142 56,278 159,381 103,103 238,160 381,160 61,0 123,-12 167,-34l0 -110c-51,22 -114,35 -167,35 -233,0 -430,-197 -430,-431l0 -98c0,-234 197,-431 430,-431 117,0 225,45 306,125 81,81 125,190 125,306l0 639 110 0 0 -660c-7,-140 -67,-270 -168,-368 -102,-98 -234,-151 -373,-151 -142,0 -277,56 -381,159 -102,103 -159,238 -159,382l0 96zm1637 -262c49,-50 113,-78 176,-78 136,0 241,106 241,241l0 98c0,136 -106,241 -241,241 -65,0 -128,-36 -178,-101 -44,-57 -72,-135 -77,-205l-88 109c18,83 61,163 122,218 63,57 142,89 221,89 194,0 351,-157 351,-350l0 -98c0,-92 -37,-179 -104,-246 -67,-67 -155,-104 -247,-104 -58,0 -149,21 -259,119 -29,30 -98,99 -140,148 -71,77 -173,192 -260,309l0 171c96,-125 152,-194 244,-300 80,-95 181,-211 239,-261l0 0zm-2585 -206l0 -130c-99,-53 -207,-76 -350,-76 -146,0 -285,53 -390,150 -106,98 -164,226 -164,362l0 35c0,283 226,513 505,513 227,0 320,-74 344,-98l0 -329 -370 0 0 109 267 0 0 165 -1 0c-34,14 -106,42 -240,42 -106,0 -206,-41 -280,-117 -75,-75 -115,-176 -115,-286l0 -35c0,-218 204,-403 445,-403 166,1 265,29 349,98l0 0zm798 128c41,0 76,7 105,21 13,-34 28,-63 48,-96 -30,-21 -101,-35 -153,-35 -200,0 -350,151 -350,351l0 639 109 0 0 -639c0,-141 99,-241 241,-241zm-1892 178l0 35c0,190 72,367 202,499 131,131 306,204 493,204 150,0 283,-34 396,-101 92,-56 134,-111 137,-116l0 -589 -559 0 0 109 450 0 0 447c-53,53 -179,141 -424,141 -159,0 -307,-61 -417,-172 -108,-111 -168,-260 -168,-421l0 -35c0,-153 68,-304 188,-416 122,-114 281,-177 447,-177 156,0 263,23 350,76l0 -123c-91,-39 -199,-56 -351,-56 -404,0 -744,318 -744,695zm2932 702l0 -639c0,-197 -154,-351 -351,-351 -92,0 -179,37 -247,104 -67,68 -104,155 -104,246l0 99c0,190 161,350 350,350 52,0 123,-13 167,-49l0 -114c-43,35 -105,55 -167,55 -135,0 -241,-106 -241,-241l0 -98c0,-136 106,-241 241,-241 135,0 241,106 241,241l0 639 111 0 0 -1zm-1040 -1070c74,0 139,16 197,49 27,-34 54,-61 75,-82 -61,-48 -165,-76 -271,-76 -153,0 -291,55 -389,155 -98,98 -151,235 -151,386l0 639 109 0 0 -639c-1,-254 176,-432 430,-432zm2344 51c-102,-103 -238,-160 -381,-160 -104,0 -208,39 -266,77 -120,79 -217,166 -394,394l0 164c150,-195 291,-348 399,-433 70,-57 170,-92 261,-92 234,0 431,198 431,431l0 98c0,116 -45,224 -128,306 -81,80 -189,125 -303,125 -191,0 -361,-132 -406,-311l-77 93c56,189 260,327 483,327 143,0 278,-57 381,-159 103,-104 160,-239 160,-382l0 -98c0,-142 -57,-278 -160,-380l0 0z"/>
    <g>
     <path class="fil1" d="M10500 12048c1119,0 2026,907 2026,2026 0,1119 -907,2026 -2026,2026 -1119,0 -2026,-907 -2026,-2026 0,-1119 907,-2026 2026,-2026z"/>
     <path class="fil2" d="M9671 13307l1694 0 0 1251 -1694 0 0 -1251zm1137 1049c-18,11 -34,4 -50,-12l-263 -262 -267 264c-16,17 -33,25 -52,11 -2,-2 -34,-33 -35,-35 -11,-18 -3,-35 13,-50l264 -266 -93 -92c-93,62 -192,7 -254,-71 -28,-34 -63,-104 -75,-170 -7,-37 -7,-72 2,-101 11,-41 23,-52 64,-64 29,-8 64,-9 101,-1 65,12 135,47 169,74 78,63 133,161 71,255l92 92 84 -85c-2,-40 -2,-86 3,-105 4,-17 13,-26 37,-49l241 -213c42,-44 72,-13 27,29l-159 150c-18,17 -30,33 -9,53 21,21 33,9 50,-7l165 -166c14,-14 30,-16 38,-7 9,8 7,24 -7,37l-166 166c-17,17 -28,29 -7,50 20,21 36,9 53,-9l150 -160c42,-45 73,-14 29,28l-214 241c-22,24 -31,33 -48,37 -19,5 -65,5 -105,3l-86 85 262 263c17,17 24,34 11,52 -2,3 -34,34 -36,35zm-1064 -1093c-12,0 -15,-15 0,-28l435 -405 339 0 339 0 435 405c16,13 12,28 0,28l-774 0 -774 0zm-7 -245l4 180 330 -309 -195 0c-85,-2 -145,45 -139,129zm1562 0l-4 180 -330 -309 196 0c85,-2 144,45 138,129zm-951 -46l117 0 30 0 193 0c19,0 33,15 33,33l0 49c0,2 0,4 0,6l-194 0 -94 0 -118 0c0,-2 0,-4 0,-6l0 -49c0,-18 15,-33 33,-33z"/>
     <path class="fil3" d="M9507 15123l126 0 8 0 0 8 0 200 0 5 -5 2c-4,2 -9,3 -14,5 -4,1 -10,2 -16,4l0 0c-12,3 -24,5 -39,7l0 0c-7,1 -14,2 -21,3 -7,0 -15,0 -23,1l0 0c-30,0 -56,-4 -80,-12l0 0c-11,-4 -22,-10 -33,-16 -10,-6 -19,-13 -28,-22l0 0c-6,-6 -11,-12 -16,-19 -5,-7 -9,-14 -13,-22 -4,-7 -8,-16 -11,-24 -3,-9 -6,-18 -8,-27 -2,-9 -4,-19 -5,-29 -1,-10 -1,-20 -1,-31l0 0c0,-13 1,-26 2,-38 2,-12 5,-24 8,-35 3,-11 8,-21 12,-31 5,-9 11,-18 17,-27 6,-8 13,-16 20,-23 8,-7 16,-13 24,-19 9,-6 18,-11 27,-15 10,-4 20,-8 30,-11 10,-3 21,-5 32,-6 10,-2 22,-2 33,-2 6,0 13,0 19,0 7,1 13,1 19,2 5,1 11,1 16,3 6,0 11,2 15,3l0 0c5,1 9,2 13,4 4,1 8,3 12,5l5 2 -1 7 -16 61 -2 9 -9 -4c-3,-1 -6,-2 -9,-4 -2,-1 -6,-2 -9,-3l0 0c-3,-1 -7,-2 -11,-2 -3,-1 -7,-2 -12,-2l0 0c-4,-1 -9,-1 -14,-2 -4,0 -9,0 -15,0 -8,0 -16,0 -24,2 -7,1 -14,3 -21,5 -7,3 -13,6 -19,10 -6,3 -11,8 -16,13 -5,5 -10,11 -14,17 -4,7 -7,14 -10,22l0 0c-3,8 -5,17 -6,27 -2,9 -3,20 -3,31 0,11 1,21 2,30 2,9 4,18 6,26 3,8 6,15 10,22 3,6 7,12 12,17l0 0c5,5 10,10 15,14l0 0c5,3 11,7 17,9l0 0c7,3 13,5 20,6 7,1 14,2 21,2 5,0 9,0 12,0 4,-1 7,-1 11,-1l0 0c3,-1 5,-1 7,-2l0 0 0 -81 -47 0 -8 0 0 -8 0 -58 0 -8 8 0zm351 -69c1,0 2,0 4,0l6 2 0 6 0 71 0 9 -9 -1c-2,0 -3,-1 -4,-1 -1,0 -3,0 -4,0 -2,0 -4,-1 -5,-1 -1,0 -3,0 -5,0 -5,0 -10,1 -14,2 -4,1 -8,3 -12,5 -4,2 -7,5 -10,8 -3,3 -6,7 -8,12l0 0c-2,4 -4,9 -5,15 -1,7 -2,13 -2,20l0 0 0 145 0 8 -8 0 -74 0 -8 0 0 -8 0 -192c0,-10 0,-18 0,-25 0,-7 0,-15 -1,-22l0 0c0,-7 0,-14 0,-21 -1,-6 -1,-13 -1,-19l0 -8 8 0 63 0 8 0 0 7 2 23c2,-3 5,-6 8,-9l0 0c4,-5 8,-9 12,-12 5,-3 10,-6 15,-8l0 0c5,-3 10,-4 14,-5 5,-2 11,-2 16,-2 1,0 2,0 5,0l0 0c1,0 3,0 4,0 2,0 3,1 5,1zm271 100c1,7 1,15 1,23l0 0 0 103c0,5 0,9 0,12 0,3 0,7 0,11l0 0c1,4 1,8 1,12 0,3 0,7 1,11l0 0c0,3 0,6 1,9 0,4 0,7 1,9l2 10 -10 0 -67 0 -6 0 -1 -7 -3 -14c-3,3 -7,6 -10,9l-1 0c-4,3 -8,5 -13,7 -4,2 -9,4 -14,6 -5,1 -10,2 -15,3 -6,1 -11,1 -17,1l0 0c-14,0 -26,-3 -38,-7l0 0c-5,-3 -10,-6 -15,-9 -5,-3 -9,-7 -14,-11l0 0c-4,-5 -7,-9 -10,-14 -3,-5 -6,-10 -8,-16l0 0c-2,-5 -3,-11 -5,-17 -1,-5 -1,-11 -1,-18l0 0c0,-9 1,-18 3,-26 2,-9 5,-17 9,-24l0 0c4,-7 9,-14 15,-20 6,-6 12,-11 19,-16 8,-4 16,-8 24,-12 8,-3 17,-6 27,-8 10,-2 20,-4 30,-5 8,-1 16,-1 25,-2 0,-1 -1,-2 -1,-3 0,-4 -1,-7 -2,-11l0 0c-1,-2 -3,-5 -5,-7 -2,-2 -4,-4 -7,-6l0 0c-3,-1 -7,-3 -11,-4 -5,-1 -10,-1 -16,-1 -6,0 -12,0 -18,1 -6,1 -11,2 -17,4l0 0c-6,2 -11,3 -16,6 -5,2 -9,4 -13,7l-9 5 -3 -10 -14 -48 -2 -6 5 -3c4,-2 7,-4 12,-6 4,-2 8,-4 13,-6 5,-2 11,-3 16,-5 6,-1 12,-3 18,-4 7,-1 13,-2 20,-3 7,0 14,-1 22,-1l0 0c11,0 22,1 31,3 9,2 18,4 26,8l0 0c8,3 14,7 21,12 6,4 11,10 16,16 4,5 8,12 11,18 3,7 6,14 8,22l0 0c2,7 3,14 4,22zm-88 107c1,-4 1,-7 1,-11l0 0 0 -32c-2,0 -4,0 -6,0l0 0c-5,1 -10,1 -14,2l0 0c-5,1 -9,2 -13,3 -4,1 -8,2 -11,4 -4,2 -7,3 -9,6 -3,2 -5,4 -7,7l0 0c-2,2 -3,5 -4,8 -1,4 -2,8 -2,12 0,4 1,7 2,10 0,3 1,6 2,8l0 0c2,2 3,4 5,5 1,2 3,3 5,4l0 0c4,2 8,3 13,3 2,0 4,0 6,0 2,-1 4,-1 7,-2l0 0c2,-1 4,-2 6,-3 2,-1 4,-2 6,-4 2,-1 4,-3 6,-5 1,-2 3,-5 4,-7l0 0c1,-3 2,-5 3,-8zm242 -318l0 136c0,0 1,-1 1,-1 6,-5 13,-10 20,-14l0 0c7,-3 15,-6 23,-8 8,-2 17,-3 27,-3l0 0c8,0 16,1 23,3 8,2 15,4 22,8l0 0c7,4 13,8 19,13 6,5 12,11 16,18l0 0c5,7 9,14 13,22l0 0c4,7 7,16 9,25l0 0c3,9 5,18 6,28 1,10 2,20 2,31l0 0c0,10 0,20 -2,30 -1,9 -2,18 -4,26 -3,9 -5,17 -8,24 -3,8 -7,14 -11,21l0 0c-4,6 -8,12 -12,17 -5,5 -10,10 -15,14 -5,5 -10,9 -16,12 -6,3 -11,6 -17,8 -6,2 -12,3 -18,4l0 0c-7,2 -13,2 -19,2l0 0c-8,0 -16,-1 -24,-3 -8,-1 -15,-4 -22,-8l0 0c-7,-4 -14,-9 -20,-15 -2,-2 -3,-3 -4,-5l-2 18 -1 8 -7 0 -63 0 -8 0 0 -9c0,-3 0,-7 0,-11 1,-4 1,-8 1,-12l0 0 0 -14 1 -14c0,-8 0,-18 0,-29l0 -322 0 -8 8 0 74 0 8 0 0 8zm1 225c-1,4 -1,8 -1,12l0 0 0 54 0 0c0,5 0,10 1,14 1,4 3,8 5,12l0 0c1,4 3,7 6,10 2,3 5,5 8,8 4,2 7,3 10,4 4,1 8,2 12,2 5,0 10,-1 14,-2 4,-2 8,-4 12,-7l0 0c3,-3 6,-6 9,-11 3,-4 5,-9 7,-15l0 0c2,-6 4,-13 5,-20 1,-8 2,-16 2,-25 0,-5 -1,-11 -1,-16 -1,-5 -2,-10 -3,-15 -1,-5 -2,-9 -4,-13 -1,-4 -3,-8 -5,-12 -2,-3 -5,-6 -7,-8 -3,-3 -5,-5 -8,-7l0 0c-3,-2 -6,-3 -10,-4 -3,-1 -7,-1 -11,-1l0 0c-3,0 -5,0 -8,1 -2,0 -5,1 -7,2l0 0c-3,2 -5,3 -7,5l0 0c-2,1 -5,3 -7,6 -2,2 -3,4 -5,7 -2,3 -3,6 -4,9 -1,3 -2,7 -3,10zm324 25l0 153 0 8 -8 0 -75 0 -8 0 0 -8 0 -385 0 -8 8 0 207 0 8 0 0 8 0 62 0 8 -8 0 -124 0 0 85 115 0 8 0 0 8 0 61 0 8 -8 0 -115 0zm256 -130l0 0c17,-7 35,-10 55,-10l0 0c11,0 20,1 30,3 9,1 18,4 26,8l0 0c9,4 16,8 23,13 7,6 14,12 20,18 6,7 11,15 16,23 4,8 8,16 11,25l0 0c3,10 5,19 7,29 1,10 2,21 2,32 0,11 0,21 -2,31 -1,10 -3,19 -6,27l0 0c-2,9 -5,17 -9,24 -4,7 -8,14 -12,20l0 0c-5,6 -10,12 -15,17 -5,5 -11,10 -17,13l0 0c-6,4 -12,8 -18,11 -6,2 -13,5 -19,7l0 0c-7,1 -14,3 -20,4 -7,1 -13,1 -20,1l0 0c-10,0 -19,-1 -28,-3 -10,-1 -18,-4 -27,-7l0 0c-8,-4 -16,-8 -23,-13 -8,-5 -14,-11 -20,-17 -7,-7 -12,-14 -17,-22 -5,-8 -9,-17 -12,-26l0 0c-3,-10 -6,-20 -7,-30l0 0c-2,-11 -3,-22 -3,-34 0,-12 1,-23 3,-34 1,-11 4,-21 8,-31 3,-9 7,-18 12,-26 5,-8 11,-16 17,-22 6,-7 13,-13 21,-18l0 0c7,-5 15,-9 24,-13zm96 176c2,-10 3,-22 3,-34 0,-5 0,-10 -1,-15 0,-5 -1,-10 -2,-16 -1,-4 -2,-9 -3,-14 -2,-4 -4,-8 -5,-12l0 0c-2,-4 -4,-8 -7,-11 -2,-3 -5,-5 -8,-7l0 0c-2,-2 -5,-4 -9,-5 -3,-1 -7,-2 -10,-2 -4,0 -7,1 -10,2 -3,0 -6,1 -8,3 -3,1 -5,3 -7,5 -2,2 -4,4 -6,7l0 0c-2,2 -4,5 -5,8 -2,3 -3,7 -5,10l0 0c-1,4 -2,8 -3,11 -1,4 -2,8 -2,12 -1,4 -1,9 -2,13l0 0c0,4 0,8 0,12 0,6 0,12 1,17 0,6 1,11 2,16l0 0c2,5 3,10 4,15 2,4 4,8 6,12l0 0c2,4 4,7 7,10 2,2 5,5 8,7l0 0c3,2 6,3 9,4l0 0c3,1 6,2 10,2 4,0 7,-1 10,-2 3,-1 6,-2 9,-4l0 0c3,-2 5,-5 8,-7 2,-3 4,-7 6,-10l0 0c2,-4 4,-8 6,-13 1,-4 3,-9 4,-14zm213 -176l0 0c17,-7 36,-10 56,-10l0 0c10,0 20,1 29,3 9,1 18,4 27,8l0 0c8,4 16,8 23,13 7,6 14,12 20,18 5,7 11,15 15,23 5,8 8,16 12,25l0 0c3,10 5,19 6,29 2,10 3,21 3,32 0,11 -1,21 -2,31 -2,10 -4,19 -6,27l0 0c-3,9 -6,17 -9,24 -4,7 -8,14 -13,20l0 0c-4,6 -9,12 -14,17 -6,5 -11,10 -17,13l0 0c-6,4 -12,8 -18,11 -7,2 -13,5 -20,7l0 0c-6,1 -13,3 -20,4 -6,1 -13,1 -19,1l0 0c-10,0 -20,-1 -29,-3 -9,-1 -18,-4 -26,-7l0 0c-9,-4 -16,-8 -24,-13 -7,-5 -14,-11 -20,-17 -6,-7 -11,-14 -16,-22 -5,-8 -9,-17 -12,-26l0 0c-4,-10 -6,-20 -8,-30l0 0c-1,-11 -2,-22 -2,-34 0,-12 1,-23 2,-34 2,-11 5,-21 8,-31 4,-9 8,-18 13,-26 5,-8 10,-16 16,-22 7,-7 14,-13 21,-18l0 0c8,-5 16,-9 24,-13zm96 176c3,-10 4,-22 4,-34 0,-5 0,-10 -1,-15 0,-5 -1,-10 -2,-16 -1,-4 -2,-9 -4,-14 -1,-4 -3,-8 -5,-12l0 0c-2,-4 -4,-8 -6,-11 -3,-3 -5,-5 -8,-7l0 0c-3,-2 -6,-4 -9,-5 -3,-1 -7,-2 -11,-2 -3,0 -6,1 -9,2 -3,0 -6,1 -8,3 -3,1 -5,3 -8,5 -2,2 -4,4 -6,7l0 0c-1,2 -3,5 -5,8 -1,3 -3,7 -4,10l0 0c-1,4 -2,8 -3,11 -1,4 -2,8 -3,12 0,4 -1,9 -1,13l0 0c0,4 0,8 0,12 0,6 0,12 0,17 1,6 2,11 3,16l0 0c1,5 2,10 4,15 2,4 3,8 6,12l0 0c2,4 4,7 6,10 3,2 6,5 8,7l0 0c3,2 6,3 9,4l0 0c4,1 7,2 11,2 3,0 7,-1 10,-2 3,-1 6,-2 8,-4l0 0c3,-2 6,-5 8,-7 3,-3 5,-7 7,-10l0 0c2,-4 4,-8 5,-13 2,-4 3,-9 4,-14zm319 -304l74 0 8 0 0 8 0 323c0,7 0,11 0,14 0,5 0,9 0,14l0 0c0,5 0,10 0,14 1,5 1,9 1,14l0 0c0,8 0,16 1,23l0 9 -8 0 -65 0 -8 0 0 -8 -2 -19c-3,3 -6,6 -9,9l0 0c-5,4 -9,7 -14,10 -5,3 -10,5 -16,7 -5,2 -11,3 -17,5 -5,0 -11,1 -18,1l0 0c-8,0 -17,-1 -24,-3 -8,-2 -16,-5 -23,-8l0 0c-7,-4 -14,-8 -20,-14 -6,-5 -12,-11 -17,-18l0 0c-5,-6 -9,-14 -13,-22 -4,-8 -8,-16 -10,-25l-1 0c-2,-9 -4,-19 -6,-29 -1,-10 -2,-21 -2,-32l0 0c0,-12 1,-23 3,-34 1,-11 4,-22 7,-31l0 0c3,-10 7,-18 11,-27 4,-8 9,-15 15,-22l0 0c5,-7 11,-12 18,-17 6,-6 13,-10 20,-13l0 0c8,-4 15,-6 23,-8 8,-2 16,-3 24,-3l0 0c6,0 11,1 16,1 6,1 11,2 16,4l0 0c4,1 9,3 13,5 4,2 8,5 12,8l0 0c1,0 2,1 3,2l0 -130 0 -8 8 0zm-9 310c0,-4 1,-9 1,-14l0 0 0 -51 0 0c0,-4 -1,-9 -1,-13 -1,-4 -2,-7 -3,-10l0 0c-1,-4 -3,-7 -4,-9 -2,-3 -3,-6 -5,-8l0 0c-2,-2 -4,-4 -7,-5 -2,-2 -4,-3 -6,-4 -5,-2 -10,-3 -15,-3l0 0c-4,0 -8,0 -12,1 -3,1 -6,3 -9,4l0 0c-3,2 -6,5 -8,7 -3,3 -5,6 -7,10l0 0c-2,3 -4,7 -6,11 -1,4 -3,9 -4,14l0 0c-1,5 -2,10 -2,15 -1,6 -1,11 -1,17 0,9 0,16 1,23 1,7 3,13 5,19l0 0c2,6 4,11 7,15 3,4 6,8 10,11l0 0c3,3 7,5 11,6l0 0c4,2 9,3 14,3l0 0c2,0 5,-1 7,-1 2,-1 5,-1 7,-2l0 0c2,-1 5,-2 7,-4 2,-1 4,-3 6,-5l1 0c2,-2 3,-4 5,-7 2,-2 3,-5 5,-8l0 -1c1,-3 2,-7 3,-11z"/>
    </g>
   </g>
  </g>
 </g>
</svg>
